<mxfile host="app.diagrams.net" modified="2024-07-06T17:09:39.384Z" agent="Mozilla/5.0 (Windows NT 10.0; Win64; x64) AppleWebKit/537.36 (KHTML, like Gecko) Chrome/126.0.0.0 Safari/537.36" version="24.6.4" etag="tG58LEEDP4k6pNFNe6f8" type="github">
  <diagram name="Page-1" id="WzpLEELLQcrfqzwo2Sk6">
    <mxGraphModel>
      <root>
        <mxCell id="0" />
        <mxCell id="1" parent="0" />
      </root>
    </mxGraphModel>
  </diagram>
</mxfile>
